<?xml version="1.0" encoding="utf-8" standalone="no"?>
<!DOCTYPE svg PUBLIC "-//W3C//DTD SVG 1.1//EN"
  "http://www.w3.org/Graphics/SVG/1.1/DTD/svg11.dtd">
<svg xmlns:xlink="http://www.w3.org/1999/xlink" width="572.4pt" height="347.04pt" viewBox="0 0 572.4 347.04" xmlns="http://www.w3.org/2000/svg" version="1.1">
 <metadata>
  <rdf:RDF xmlns:dc="http://purl.org/dc/elements/1.1/" xmlns:cc="http://creativecommons.org/ns#" xmlns:rdf="http://www.w3.org/1999/02/22-rdf-syntax-ns#">
   <cc:Work>
    <dc:type rdf:resource="http://purl.org/dc/dcmitype/StillImage"/>
    <dc:date>2025-12-18T15:28:38.343457</dc:date>
    <dc:format>image/svg+xml</dc:format>
    <dc:creator>
     <cc:Agent>
      <dc:title>Matplotlib v3.7.5, https://matplotlib.org/</dc:title>
     </cc:Agent>
    </dc:creator>
   </cc:Work>
  </rdf:RDF>
 </metadata>
 <defs>
  <style type="text/css">*{stroke-linejoin: round; stroke-linecap: butt}</style>
 </defs>
 <g id="figure_1">
  <g id="patch_1">
   <path d="M 0 347.04 
L 572.4 347.04 
L 572.4 -0 
L 0 -0 
z
" style="fill: #ffffff"/>
  </g>
  <g id="axes_1">
   <g id="text_1">
    <!--  -->
    <g transform="translate(286.2 129.917391) scale(0.09 -0.09)"/>
    <!-- TCP State Machine (RFC 793, simplified) -->
    <g transform="translate(180.543516 140.052797) scale(0.09 -0.09)">
     <defs>
      <path id="DejaVuSansMono-54" d="M 147 4666 
L 3706 4666 
L 3706 4134 
L 2247 4134 
L 2247 0 
L 1613 0 
L 1613 4134 
L 147 4134 
L 147 4666 
z
" transform="scale(0.015625)"/>
      <path id="DejaVuSansMono-43" d="M 3353 166 
Q 3113 38 2859 -26 
Q 2606 -91 2322 -91 
Q 1425 -91 929 543 
Q 434 1178 434 2328 
Q 434 3472 932 4111 
Q 1431 4750 2322 4750 
Q 2606 4750 2859 4686 
Q 3113 4622 3353 4494 
L 3353 3847 
Q 3122 4038 2856 4138 
Q 2591 4238 2322 4238 
Q 1706 4238 1400 3763 
Q 1094 3288 1094 2328 
Q 1094 1372 1400 897 
Q 1706 422 2322 422 
Q 2597 422 2861 522 
Q 3125 622 3353 813 
L 3353 166 
z
" transform="scale(0.015625)"/>
      <path id="DejaVuSansMono-50" d="M 1247 4147 
L 1247 2394 
L 1978 2394 
Q 2416 2394 2661 2625 
Q 2906 2856 2906 3272 
Q 2906 3688 2662 3917 
Q 2419 4147 1978 4147 
L 1247 4147 
z
M 616 4666 
L 1978 4666 
Q 2759 4666 3162 4311 
Q 3566 3956 3566 3272 
Q 3566 2581 3164 2228 
Q 2763 1875 1978 1875 
L 1247 1875 
L 1247 0 
L 616 0 
L 616 4666 
z
" transform="scale(0.015625)"/>
      <path id="DejaVuSansMono-20" transform="scale(0.015625)"/>
      <path id="DejaVuSansMono-53" d="M 3163 4506 
L 3163 3866 
Q 2875 4050 2586 4144 
Q 2297 4238 2003 4238 
Q 1556 4238 1297 4030 
Q 1038 3822 1038 3469 
Q 1038 3159 1208 2996 
Q 1378 2834 1844 2725 
L 2175 2650 
Q 2831 2497 3131 2169 
Q 3431 1841 3431 1275 
Q 3431 609 3018 259 
Q 2606 -91 1819 -91 
Q 1491 -91 1159 -20 
Q 828 50 494 191 
L 494 863 
Q 853 634 1173 528 
Q 1494 422 1819 422 
Q 2297 422 2562 636 
Q 2828 850 2828 1234 
Q 2828 1584 2645 1768 
Q 2463 1953 2009 2053 
L 1672 2131 
Q 1022 2278 728 2575 
Q 434 2872 434 3372 
Q 434 3997 854 4373 
Q 1275 4750 1972 4750 
Q 2241 4750 2537 4689 
Q 2834 4628 3163 4506 
z
" transform="scale(0.015625)"/>
      <path id="DejaVuSansMono-74" d="M 1919 4494 
L 1919 3500 
L 3225 3500 
L 3225 3053 
L 1919 3053 
L 1919 1153 
Q 1919 766 2066 612 
Q 2213 459 2578 459 
L 3225 459 
L 3225 0 
L 2522 0 
Q 1875 0 1609 259 
Q 1344 519 1344 1153 
L 1344 3053 
L 409 3053 
L 409 3500 
L 1344 3500 
L 1344 4494 
L 1919 4494 
z
" transform="scale(0.015625)"/>
      <path id="DejaVuSansMono-61" d="M 2194 1759 
L 2003 1759 
Q 1500 1759 1245 1582 
Q 991 1406 991 1056 
Q 991 741 1181 566 
Q 1372 391 1709 391 
Q 2184 391 2456 720 
Q 2728 1050 2731 1631 
L 2731 1759 
L 2194 1759 
z
M 3309 1997 
L 3309 0 
L 2731 0 
L 2731 519 
Q 2547 206 2267 57 
Q 1988 -91 1588 -91 
Q 1053 -91 734 211 
Q 416 513 416 1019 
Q 416 1603 808 1906 
Q 1200 2209 1959 2209 
L 2731 2209 
L 2731 2300 
Q 2728 2719 2518 2908 
Q 2309 3097 1850 3097 
Q 1556 3097 1256 3012 
Q 956 2928 672 2766 
L 672 3341 
Q 991 3463 1283 3523 
Q 1575 3584 1850 3584 
Q 2284 3584 2592 3456 
Q 2900 3328 3091 3072 
Q 3209 2916 3259 2686 
Q 3309 2456 3309 1997 
z
" transform="scale(0.015625)"/>
      <path id="DejaVuSansMono-65" d="M 3475 1894 
L 3475 1613 
L 984 1613 
L 984 1594 
Q 984 1022 1282 709 
Q 1581 397 2125 397 
Q 2400 397 2700 484 
Q 3000 572 3341 750 
L 3341 178 
Q 3013 44 2708 -23 
Q 2403 -91 2119 -91 
Q 1303 -91 843 398 
Q 384 888 384 1747 
Q 384 2584 834 3084 
Q 1284 3584 2034 3584 
Q 2703 3584 3089 3131 
Q 3475 2678 3475 1894 
z
M 2900 2063 
Q 2888 2569 2661 2833 
Q 2434 3097 2009 3097 
Q 1594 3097 1325 2822 
Q 1056 2547 1006 2059 
L 2900 2063 
z
" transform="scale(0.015625)"/>
      <path id="DejaVuSansMono-4d" d="M 269 4666 
L 1113 4666 
L 1919 2291 
L 2731 4666 
L 3578 4666 
L 3578 0 
L 2994 0 
L 2994 4122 
L 2163 1663 
L 1684 1663 
L 850 4122 
L 850 0 
L 269 0 
L 269 4666 
z
" transform="scale(0.015625)"/>
      <path id="DejaVuSansMono-63" d="M 3316 178 
Q 3084 44 2839 -23 
Q 2594 -91 2338 -91 
Q 1525 -91 1067 396 
Q 609 884 609 1747 
Q 609 2609 1067 3096 
Q 1525 3584 2338 3584 
Q 2591 3584 2831 3518 
Q 3072 3453 3316 3316 
L 3316 2713 
Q 3088 2916 2858 3006 
Q 2628 3097 2338 3097 
Q 1797 3097 1506 2747 
Q 1216 2397 1216 1747 
Q 1216 1100 1508 748 
Q 1800 397 2338 397 
Q 2638 397 2875 489 
Q 3113 581 3316 775 
L 3316 178 
z
" transform="scale(0.015625)"/>
      <path id="DejaVuSansMono-68" d="M 3284 2169 
L 3284 0 
L 2706 0 
L 2706 2169 
Q 2706 2641 2540 2862 
Q 2375 3084 2022 3084 
Q 1619 3084 1401 2798 
Q 1184 2513 1184 1978 
L 1184 0 
L 609 0 
L 609 4863 
L 1184 4863 
L 1184 2975 
Q 1338 3275 1600 3429 
Q 1863 3584 2222 3584 
Q 2756 3584 3020 3232 
Q 3284 2881 3284 2169 
z
" transform="scale(0.015625)"/>
      <path id="DejaVuSansMono-69" d="M 800 3500 
L 2272 3500 
L 2272 447 
L 3413 447 
L 3413 0 
L 556 0 
L 556 447 
L 1697 447 
L 1697 3053 
L 800 3053 
L 800 3500 
z
M 1697 4863 
L 2272 4863 
L 2272 4134 
L 1697 4134 
L 1697 4863 
z
" transform="scale(0.015625)"/>
      <path id="DejaVuSansMono-6e" d="M 3284 2169 
L 3284 0 
L 2706 0 
L 2706 2169 
Q 2706 2641 2540 2862 
Q 2375 3084 2022 3084 
Q 1619 3084 1401 2798 
Q 1184 2513 1184 1978 
L 1184 0 
L 609 0 
L 609 3500 
L 1184 3500 
L 1184 2975 
Q 1338 3275 1600 3429 
Q 1863 3584 2222 3584 
Q 2756 3584 3020 3232 
Q 3284 2881 3284 2169 
z
" transform="scale(0.015625)"/>
      <path id="DejaVuSansMono-28" d="M 2766 4856 
Q 2350 4144 2145 3436 
Q 1941 2728 1941 2009 
Q 1941 1294 2145 584 
Q 2350 -125 2766 -844 
L 2266 -844 
Q 1794 -100 1562 604 
Q 1331 1309 1331 2009 
Q 1331 2706 1562 3412 
Q 1794 4119 2266 4856 
L 2766 4856 
z
" transform="scale(0.015625)"/>
      <path id="DejaVuSansMono-52" d="M 2375 2203 
Q 2619 2141 2791 1967 
Q 2963 1794 3219 1275 
L 3853 0 
L 3175 0 
L 2619 1178 
Q 2378 1681 2186 1826 
Q 1994 1972 1684 1972 
L 1081 1972 
L 1081 0 
L 447 0 
L 447 4666 
L 1747 4666 
Q 2516 4666 2925 4319 
Q 3334 3972 3334 3316 
Q 3334 2853 3082 2561 
Q 2831 2269 2375 2203 
z
M 1081 4147 
L 1081 2491 
L 1772 2491 
Q 2225 2491 2447 2694 
Q 2669 2897 2669 3316 
Q 2669 3719 2433 3933 
Q 2197 4147 1747 4147 
L 1081 4147 
z
" transform="scale(0.015625)"/>
      <path id="DejaVuSansMono-46" d="M 728 4666 
L 3475 4666 
L 3475 4134 
L 1363 4134 
L 1363 2759 
L 3278 2759 
L 3278 2228 
L 1363 2228 
L 1363 0 
L 728 0 
L 728 4666 
z
" transform="scale(0.015625)"/>
      <path id="DejaVuSansMono-37" d="M 434 4666 
L 3372 4666 
L 3372 4397 
L 1703 0 
L 1044 0 
L 2669 4134 
L 434 4134 
L 434 4666 
z
" transform="scale(0.015625)"/>
      <path id="DejaVuSansMono-39" d="M 1863 2069 
Q 2266 2069 2495 2359 
Q 2725 2650 2725 3163 
Q 2725 3675 2495 3965 
Q 2266 4256 1863 4256 
Q 1444 4256 1231 3979 
Q 1019 3703 1019 3163 
Q 1019 2619 1230 2344 
Q 1441 2069 1863 2069 
z
M 738 97 
L 738 678 
Q 934 563 1156 502 
Q 1378 441 1619 441 
Q 2219 441 2526 892 
Q 2834 1344 2834 2222 
Q 2688 1909 2422 1742 
Q 2156 1575 1813 1575 
Q 1138 1575 767 1990 
Q 397 2406 397 3169 
Q 397 3922 776 4336 
Q 1156 4750 1850 4750 
Q 2663 4750 3041 4165 
Q 3419 3581 3419 2328 
Q 3419 1150 2964 529 
Q 2509 -91 1644 -91 
Q 1416 -91 1184 -42 
Q 953 6 738 97 
z
" transform="scale(0.015625)"/>
      <path id="DejaVuSansMono-33" d="M 2425 2497 
Q 2884 2375 3128 2064 
Q 3372 1753 3372 1288 
Q 3372 644 2939 276 
Q 2506 -91 1741 -91 
Q 1419 -91 1084 -31 
Q 750 28 428 141 
L 428 769 
Q 747 603 1056 522 
Q 1366 441 1672 441 
Q 2191 441 2469 675 
Q 2747 909 2747 1350 
Q 2747 1756 2469 1995 
Q 2191 2234 1716 2234 
L 1234 2234 
L 1234 2753 
L 1716 2753 
Q 2150 2753 2394 2943 
Q 2638 3134 2638 3475 
Q 2638 3834 2411 4026 
Q 2184 4219 1766 4219 
Q 1488 4219 1191 4156 
Q 894 4094 569 3969 
L 569 4550 
Q 947 4650 1242 4700 
Q 1538 4750 1766 4750 
Q 2447 4750 2855 4408 
Q 3263 4066 3263 3500 
Q 3263 3116 3048 2859 
Q 2834 2603 2425 2497 
z
" transform="scale(0.015625)"/>
      <path id="DejaVuSansMono-2c" d="M 1569 947 
L 2356 947 
L 2356 300 
L 1741 -897 
L 1259 -897 
L 1569 300 
L 1569 947 
z
" transform="scale(0.015625)"/>
      <path id="DejaVuSansMono-73" d="M 3041 3378 
L 3041 2816 
Q 2794 2959 2544 3031 
Q 2294 3103 2034 3103 
Q 1644 3103 1451 2976 
Q 1259 2850 1259 2591 
Q 1259 2356 1403 2240 
Q 1547 2125 2119 2016 
L 2350 1972 
Q 2778 1891 2998 1647 
Q 3219 1403 3219 1013 
Q 3219 494 2850 201 
Q 2481 -91 1825 -91 
Q 1566 -91 1281 -36 
Q 997 19 666 128 
L 666 722 
Q 988 556 1281 473 
Q 1575 391 1838 391 
Q 2219 391 2428 545 
Q 2638 700 2638 978 
Q 2638 1378 1872 1531 
L 1847 1538 
L 1631 1581 
Q 1134 1678 906 1908 
Q 678 2138 678 2534 
Q 678 3038 1018 3311 
Q 1359 3584 1991 3584 
Q 2272 3584 2531 3532 
Q 2791 3481 3041 3378 
z
" transform="scale(0.015625)"/>
      <path id="DejaVuSansMono-6d" d="M 2113 3144 
Q 2219 3369 2383 3476 
Q 2547 3584 2778 3584 
Q 3200 3584 3373 3257 
Q 3547 2931 3547 2028 
L 3547 0 
L 3022 0 
L 3022 2003 
Q 3022 2744 2939 2923 
Q 2856 3103 2638 3103 
Q 2388 3103 2295 2911 
Q 2203 2719 2203 2003 
L 2203 0 
L 1678 0 
L 1678 2003 
Q 1678 2753 1589 2928 
Q 1500 3103 1269 3103 
Q 1041 3103 952 2911 
Q 863 2719 863 2003 
L 863 0 
L 341 0 
L 341 3500 
L 863 3500 
L 863 3200 
Q 966 3388 1120 3486 
Q 1275 3584 1472 3584 
Q 1709 3584 1867 3475 
Q 2025 3366 2113 3144 
z
" transform="scale(0.015625)"/>
      <path id="DejaVuSansMono-70" d="M 1172 441 
L 1172 -1331 
L 594 -1331 
L 594 3500 
L 1172 3500 
L 1172 3053 
Q 1316 3313 1555 3448 
Q 1794 3584 2106 3584 
Q 2741 3584 3102 3093 
Q 3463 2603 3463 1734 
Q 3463 881 3100 395 
Q 2738 -91 2106 -91 
Q 1788 -91 1548 45 
Q 1309 181 1172 441 
z
M 2859 1747 
Q 2859 2416 2648 2756 
Q 2438 3097 2022 3097 
Q 1603 3097 1387 2755 
Q 1172 2413 1172 1747 
Q 1172 1084 1387 740 
Q 1603 397 2022 397 
Q 2438 397 2648 737 
Q 2859 1078 2859 1747 
z
" transform="scale(0.015625)"/>
      <path id="DejaVuSansMono-6c" d="M 1997 1269 
Q 1997 881 2139 684 
Q 2281 488 2559 488 
L 3231 488 
L 3231 0 
L 2503 0 
Q 1988 0 1705 331 
Q 1422 663 1422 1269 
L 1422 4447 
L 500 4447 
L 500 4897 
L 1997 4897 
L 1997 1269 
z
" transform="scale(0.015625)"/>
      <path id="DejaVuSansMono-66" d="M 3322 4863 
L 3322 4384 
L 2669 4384 
Q 2359 4384 2239 4257 
Q 2119 4131 2119 3809 
L 2119 3500 
L 3322 3500 
L 3322 3053 
L 2119 3053 
L 2119 0 
L 1544 0 
L 1544 3053 
L 609 3053 
L 609 3500 
L 1544 3500 
L 1544 3744 
Q 1544 4319 1808 4591 
Q 2072 4863 2631 4863 
L 3322 4863 
z
" transform="scale(0.015625)"/>
      <path id="DejaVuSansMono-64" d="M 2681 3053 
L 2681 4863 
L 3256 4863 
L 3256 0 
L 2681 0 
L 2681 441 
Q 2538 181 2298 45 
Q 2059 -91 1747 -91 
Q 1113 -91 748 401 
Q 384 894 384 1759 
Q 384 2613 750 3098 
Q 1116 3584 1747 3584 
Q 2063 3584 2303 3448 
Q 2544 3313 2681 3053 
z
M 991 1747 
Q 991 1078 1203 737 
Q 1416 397 1831 397 
Q 2247 397 2464 740 
Q 2681 1084 2681 1747 
Q 2681 2413 2464 2755 
Q 2247 3097 1831 3097 
Q 1416 3097 1203 2756 
Q 991 2416 991 1747 
z
" transform="scale(0.015625)"/>
      <path id="DejaVuSansMono-29" d="M 1088 4856 
L 1588 4856 
Q 2059 4119 2290 3412 
Q 2522 2706 2522 2009 
Q 2522 1306 2290 600 
Q 2059 -106 1588 -844 
L 1088 -844 
Q 1503 -119 1708 590 
Q 1913 1300 1913 2009 
Q 1913 2722 1708 3431 
Q 1503 4141 1088 4856 
z
" transform="scale(0.015625)"/>
     </defs>
     <use xlink:href="#DejaVuSansMono-54"/>
     <use xlink:href="#DejaVuSansMono-43" x="60.205078"/>
     <use xlink:href="#DejaVuSansMono-50" x="120.410156"/>
     <use xlink:href="#DejaVuSansMono-20" x="180.615234"/>
     <use xlink:href="#DejaVuSansMono-53" x="240.820312"/>
     <use xlink:href="#DejaVuSansMono-74" x="301.025391"/>
     <use xlink:href="#DejaVuSansMono-61" x="361.230469"/>
     <use xlink:href="#DejaVuSansMono-74" x="421.435547"/>
     <use xlink:href="#DejaVuSansMono-65" x="481.640625"/>
     <use xlink:href="#DejaVuSansMono-20" x="541.845703"/>
     <use xlink:href="#DejaVuSansMono-4d" x="602.050781"/>
     <use xlink:href="#DejaVuSansMono-61" x="662.255859"/>
     <use xlink:href="#DejaVuSansMono-63" x="722.460938"/>
     <use xlink:href="#DejaVuSansMono-68" x="782.666016"/>
     <use xlink:href="#DejaVuSansMono-69" x="842.871094"/>
     <use xlink:href="#DejaVuSansMono-6e" x="903.076172"/>
     <use xlink:href="#DejaVuSansMono-65" x="963.28125"/>
     <use xlink:href="#DejaVuSansMono-20" x="1023.486328"/>
     <use xlink:href="#DejaVuSansMono-28" x="1083.691406"/>
     <use xlink:href="#DejaVuSansMono-52" x="1143.896484"/>
     <use xlink:href="#DejaVuSansMono-46" x="1204.101562"/>
     <use xlink:href="#DejaVuSansMono-43" x="1264.306641"/>
     <use xlink:href="#DejaVuSansMono-20" x="1324.511719"/>
     <use xlink:href="#DejaVuSansMono-37" x="1384.716797"/>
     <use xlink:href="#DejaVuSansMono-39" x="1444.921875"/>
     <use xlink:href="#DejaVuSansMono-33" x="1505.126953"/>
     <use xlink:href="#DejaVuSansMono-2c" x="1565.332031"/>
     <use xlink:href="#DejaVuSansMono-20" x="1625.537109"/>
     <use xlink:href="#DejaVuSansMono-73" x="1685.742188"/>
     <use xlink:href="#DejaVuSansMono-69" x="1745.947266"/>
     <use xlink:href="#DejaVuSansMono-6d" x="1806.152344"/>
     <use xlink:href="#DejaVuSansMono-70" x="1866.357422"/>
     <use xlink:href="#DejaVuSansMono-6c" x="1926.5625"/>
     <use xlink:href="#DejaVuSansMono-69" x="1986.767578"/>
     <use xlink:href="#DejaVuSansMono-66" x="2046.972656"/>
     <use xlink:href="#DejaVuSansMono-69" x="2107.177734"/>
     <use xlink:href="#DejaVuSansMono-65" x="2167.382812"/>
     <use xlink:href="#DejaVuSansMono-64" x="2227.587891"/>
     <use xlink:href="#DejaVuSansMono-29" x="2287.792969"/>
    </g>
    <!--  -->
    <g transform="translate(286.2 150.188203) scale(0.09 -0.09)"/>
    <!--    LISTEN -->
    <g transform="translate(261.817734 160.323609) scale(0.09 -0.09)">
     <defs>
      <path id="DejaVuSansMono-4c" d="M 672 4666 
L 1306 4666 
L 1306 531 
L 3559 531 
L 3559 0 
L 672 0 
L 672 4666 
z
" transform="scale(0.015625)"/>
      <path id="DejaVuSansMono-49" d="M 628 4666 
L 3219 4666 
L 3219 4134 
L 2241 4134 
L 2241 531 
L 3219 531 
L 3219 0 
L 628 0 
L 628 531 
L 1606 531 
L 1606 4134 
L 628 4134 
L 628 4666 
z
" transform="scale(0.015625)"/>
      <path id="DejaVuSansMono-45" d="M 616 4666 
L 3384 4666 
L 3384 4134 
L 1247 4134 
L 1247 2753 
L 3291 2753 
L 3291 2222 
L 1247 2222 
L 1247 531 
L 3444 531 
L 3444 0 
L 616 0 
L 616 4666 
z
" transform="scale(0.015625)"/>
      <path id="DejaVuSansMono-4e" d="M 434 4666 
L 1234 4666 
L 2809 825 
L 2809 4666 
L 3419 4666 
L 3419 0 
L 2619 0 
L 1044 3841 
L 1044 0 
L 434 0 
L 434 4666 
z
" transform="scale(0.015625)"/>
     </defs>
     <use xlink:href="#DejaVuSansMono-20"/>
     <use xlink:href="#DejaVuSansMono-20" x="60.205078"/>
     <use xlink:href="#DejaVuSansMono-20" x="120.410156"/>
     <use xlink:href="#DejaVuSansMono-4c" x="180.615234"/>
     <use xlink:href="#DejaVuSansMono-49" x="240.820312"/>
     <use xlink:href="#DejaVuSansMono-53" x="301.025391"/>
     <use xlink:href="#DejaVuSansMono-54" x="361.230469"/>
     <use xlink:href="#DejaVuSansMono-45" x="421.435547"/>
     <use xlink:href="#DejaVuSansMono-4e" x="481.640625"/>
    </g>
    <!--      | -->
    <g transform="translate(269.945156 170.459016) scale(0.09 -0.09)">
     <defs>
      <path id="DejaVuSansMono-7c" d="M 2194 4891 
L 2194 -1509 
L 1656 -1509 
L 1656 4891 
L 2194 4891 
z
" transform="scale(0.015625)"/>
     </defs>
     <use xlink:href="#DejaVuSansMono-20"/>
     <use xlink:href="#DejaVuSansMono-20" x="60.205078"/>
     <use xlink:href="#DejaVuSansMono-20" x="120.410156"/>
     <use xlink:href="#DejaVuSansMono-20" x="180.615234"/>
     <use xlink:href="#DejaVuSansMono-20" x="240.820312"/>
     <use xlink:href="#DejaVuSansMono-7c" x="301.025391"/>
    </g>
    <!--     SYN → SYN_RCVD → ESTABLISHED → FIN_WAIT1 → FIN_WAIT2 → TIME_WAIT -->
    <g transform="translate(101.978437 180.844734) scale(0.09 -0.09)">
     <defs>
      <path id="DejaVuSansMono-59" d="M 116 4666 
L 788 4666 
L 1925 2606 
L 3059 4666 
L 3738 4666 
L 2241 2094 
L 2241 0 
L 1606 0 
L 1606 2094 
L 116 4666 
z
" transform="scale(0.015625)"/>
      <path id="DejaVuSansMono-2192" d="M 3647 1625 
L 2738 716 
L 2456 997 
L 2956 1497 
L 206 1497 
L 206 2009 
L 2956 2009 
L 2456 2509 
L 2738 2791 
L 3647 1881 
L 3647 1625 
z
" transform="scale(0.015625)"/>
      <path id="DejaVuSansMono-5f" d="M 3853 -1259 
L 3853 -1509 
L 0 -1509 
L 0 -1259 
L 3853 -1259 
z
" transform="scale(0.015625)"/>
      <path id="DejaVuSansMono-56" d="M 1925 531 
L 3022 4666 
L 3675 4666 
L 2309 0 
L 1544 0 
L 178 4666 
L 831 4666 
L 1925 531 
z
" transform="scale(0.015625)"/>
      <path id="DejaVuSansMono-44" d="M 1363 519 
Q 2159 519 2475 911 
Q 2791 1303 2791 2328 
Q 2791 3363 2477 3755 
Q 2163 4147 1363 4147 
L 1063 4147 
L 1063 519 
L 1363 519 
z
M 1375 4666 
Q 2444 4666 2950 4097 
Q 3456 3528 3456 2328 
Q 3456 1134 2950 567 
Q 2444 0 1375 0 
L 428 0 
L 428 4666 
L 1375 4666 
z
" transform="scale(0.015625)"/>
      <path id="DejaVuSansMono-41" d="M 1925 4109 
L 1259 1722 
L 2591 1722 
L 1925 4109 
z
M 1544 4666 
L 2309 4666 
L 3738 0 
L 3084 0 
L 2741 1216 
L 1106 1216 
L 769 0 
L 116 0 
L 1544 4666 
z
" transform="scale(0.015625)"/>
      <path id="DejaVuSansMono-42" d="M 1153 2228 
L 1153 519 
L 1900 519 
Q 2450 519 2684 711 
Q 2919 903 2919 1344 
Q 2919 1800 2672 2014 
Q 2425 2228 1900 2228 
L 1153 2228 
z
M 1153 4147 
L 1153 2741 
L 1888 2741 
Q 2344 2741 2548 2916 
Q 2753 3091 2753 3481 
Q 2753 3834 2551 3990 
Q 2350 4147 1888 4147 
L 1153 4147 
z
M 519 4666 
L 1900 4666 
Q 2616 4666 3003 4356 
Q 3391 4047 3391 3481 
Q 3391 3053 3186 2806 
Q 2981 2559 2572 2497 
Q 3031 2428 3292 2104 
Q 3553 1781 3553 1281 
Q 3553 647 3137 323 
Q 2722 0 1900 0 
L 519 0 
L 519 4666 
z
" transform="scale(0.015625)"/>
      <path id="DejaVuSansMono-48" d="M 428 4666 
L 1063 4666 
L 1063 2753 
L 2791 2753 
L 2791 4666 
L 3425 4666 
L 3425 0 
L 2791 0 
L 2791 2222 
L 1063 2222 
L 1063 0 
L 428 0 
L 428 4666 
z
" transform="scale(0.015625)"/>
      <path id="DejaVuSansMono-57" d="M 0 4666 
L 616 4666 
L 1063 878 
L 1594 3384 
L 2253 3384 
L 2791 872 
L 3238 4666 
L 3853 4666 
L 3156 0 
L 2559 0 
L 1925 2772 
L 1294 0 
L 697 0 
L 0 4666 
z
" transform="scale(0.015625)"/>
      <path id="DejaVuSansMono-31" d="M 844 531 
L 1825 531 
L 1825 4097 
L 769 3859 
L 769 4434 
L 1819 4666 
L 2450 4666 
L 2450 531 
L 3419 531 
L 3419 0 
L 844 0 
L 844 531 
z
" transform="scale(0.015625)"/>
      <path id="DejaVuSansMono-32" d="M 1166 531 
L 3309 531 
L 3309 0 
L 475 0 
L 475 531 
Q 1059 1147 1496 1619 
Q 1934 2091 2100 2284 
Q 2413 2666 2522 2902 
Q 2631 3138 2631 3384 
Q 2631 3775 2401 3997 
Q 2172 4219 1772 4219 
Q 1488 4219 1175 4116 
Q 863 4013 513 3803 
L 513 4441 
Q 834 4594 1145 4672 
Q 1456 4750 1759 4750 
Q 2444 4750 2861 4386 
Q 3278 4022 3278 3431 
Q 3278 3131 3139 2831 
Q 3000 2531 2688 2169 
Q 2513 1966 2180 1606 
Q 1847 1247 1166 531 
z
" transform="scale(0.015625)"/>
     </defs>
     <use xlink:href="#DejaVuSansMono-20"/>
     <use xlink:href="#DejaVuSansMono-20" x="60.205078"/>
     <use xlink:href="#DejaVuSansMono-20" x="120.410156"/>
     <use xlink:href="#DejaVuSansMono-20" x="180.615234"/>
     <use xlink:href="#DejaVuSansMono-53" x="240.820312"/>
     <use xlink:href="#DejaVuSansMono-59" x="301.025391"/>
     <use xlink:href="#DejaVuSansMono-4e" x="361.230469"/>
     <use xlink:href="#DejaVuSansMono-20" x="421.435547"/>
     <use xlink:href="#DejaVuSansMono-2192" x="481.640625"/>
     <use xlink:href="#DejaVuSansMono-20" x="541.845703"/>
     <use xlink:href="#DejaVuSansMono-53" x="602.050781"/>
     <use xlink:href="#DejaVuSansMono-59" x="662.255859"/>
     <use xlink:href="#DejaVuSansMono-4e" x="722.460938"/>
     <use xlink:href="#DejaVuSansMono-5f" x="782.666016"/>
     <use xlink:href="#DejaVuSansMono-52" x="842.871094"/>
     <use xlink:href="#DejaVuSansMono-43" x="903.076172"/>
     <use xlink:href="#DejaVuSansMono-56" x="963.28125"/>
     <use xlink:href="#DejaVuSansMono-44" x="1023.486328"/>
     <use xlink:href="#DejaVuSansMono-20" x="1083.691406"/>
     <use xlink:href="#DejaVuSansMono-2192" x="1143.896484"/>
     <use xlink:href="#DejaVuSansMono-20" x="1204.101562"/>
     <use xlink:href="#DejaVuSansMono-45" x="1264.306641"/>
     <use xlink:href="#DejaVuSansMono-53" x="1324.511719"/>
     <use xlink:href="#DejaVuSansMono-54" x="1384.716797"/>
     <use xlink:href="#DejaVuSansMono-41" x="1444.921875"/>
     <use xlink:href="#DejaVuSansMono-42" x="1505.126953"/>
     <use xlink:href="#DejaVuSansMono-4c" x="1565.332031"/>
     <use xlink:href="#DejaVuSansMono-49" x="1625.537109"/>
     <use xlink:href="#DejaVuSansMono-53" x="1685.742188"/>
     <use xlink:href="#DejaVuSansMono-48" x="1745.947266"/>
     <use xlink:href="#DejaVuSansMono-45" x="1806.152344"/>
     <use xlink:href="#DejaVuSansMono-44" x="1866.357422"/>
     <use xlink:href="#DejaVuSansMono-20" x="1926.5625"/>
     <use xlink:href="#DejaVuSansMono-2192" x="1986.767578"/>
     <use xlink:href="#DejaVuSansMono-20" x="2046.972656"/>
     <use xlink:href="#DejaVuSansMono-46" x="2107.177734"/>
     <use xlink:href="#DejaVuSansMono-49" x="2167.382812"/>
     <use xlink:href="#DejaVuSansMono-4e" x="2227.587891"/>
     <use xlink:href="#DejaVuSansMono-5f" x="2287.792969"/>
     <use xlink:href="#DejaVuSansMono-57" x="2347.998047"/>
     <use xlink:href="#DejaVuSansMono-41" x="2408.203125"/>
     <use xlink:href="#DejaVuSansMono-49" x="2468.408203"/>
     <use xlink:href="#DejaVuSansMono-54" x="2528.613281"/>
     <use xlink:href="#DejaVuSansMono-31" x="2588.818359"/>
     <use xlink:href="#DejaVuSansMono-20" x="2649.023438"/>
     <use xlink:href="#DejaVuSansMono-2192" x="2709.228516"/>
     <use xlink:href="#DejaVuSansMono-20" x="2769.433594"/>
     <use xlink:href="#DejaVuSansMono-46" x="2829.638672"/>
     <use xlink:href="#DejaVuSansMono-49" x="2889.84375"/>
     <use xlink:href="#DejaVuSansMono-4e" x="2950.048828"/>
     <use xlink:href="#DejaVuSansMono-5f" x="3010.253906"/>
     <use xlink:href="#DejaVuSansMono-57" x="3070.458984"/>
     <use xlink:href="#DejaVuSansMono-41" x="3130.664062"/>
     <use xlink:href="#DejaVuSansMono-49" x="3190.869141"/>
     <use xlink:href="#DejaVuSansMono-54" x="3251.074219"/>
     <use xlink:href="#DejaVuSansMono-32" x="3311.279297"/>
     <use xlink:href="#DejaVuSansMono-20" x="3371.484375"/>
     <use xlink:href="#DejaVuSansMono-2192" x="3431.689453"/>
     <use xlink:href="#DejaVuSansMono-20" x="3491.894531"/>
     <use xlink:href="#DejaVuSansMono-54" x="3552.099609"/>
     <use xlink:href="#DejaVuSansMono-49" x="3612.304688"/>
     <use xlink:href="#DejaVuSansMono-4d" x="3672.509766"/>
     <use xlink:href="#DejaVuSansMono-45" x="3732.714844"/>
     <use xlink:href="#DejaVuSansMono-5f" x="3792.919922"/>
     <use xlink:href="#DejaVuSansMono-57" x="3853.125"/>
     <use xlink:href="#DejaVuSansMono-41" x="3913.330078"/>
     <use xlink:href="#DejaVuSansMono-49" x="3973.535156"/>
     <use xlink:href="#DejaVuSansMono-54" x="4033.740234"/>
    </g>
    <!--                                      ^ -->
    <g transform="translate(183.252656 191.230453) scale(0.09 -0.09)">
     <defs>
      <path id="DejaVuSansMono-5e" d="M 2203 4666 
L 3628 2925 
L 3072 2925 
L 1925 4159 
L 781 2925 
L 225 2925 
L 1650 4666 
L 2203 4666 
z
" transform="scale(0.015625)"/>
     </defs>
     <use xlink:href="#DejaVuSansMono-20"/>
     <use xlink:href="#DejaVuSansMono-20" x="60.205078"/>
     <use xlink:href="#DejaVuSansMono-20" x="120.410156"/>
     <use xlink:href="#DejaVuSansMono-20" x="180.615234"/>
     <use xlink:href="#DejaVuSansMono-20" x="240.820312"/>
     <use xlink:href="#DejaVuSansMono-20" x="301.025391"/>
     <use xlink:href="#DejaVuSansMono-20" x="361.230469"/>
     <use xlink:href="#DejaVuSansMono-20" x="421.435547"/>
     <use xlink:href="#DejaVuSansMono-20" x="481.640625"/>
     <use xlink:href="#DejaVuSansMono-20" x="541.845703"/>
     <use xlink:href="#DejaVuSansMono-20" x="602.050781"/>
     <use xlink:href="#DejaVuSansMono-20" x="662.255859"/>
     <use xlink:href="#DejaVuSansMono-20" x="722.460938"/>
     <use xlink:href="#DejaVuSansMono-20" x="782.666016"/>
     <use xlink:href="#DejaVuSansMono-20" x="842.871094"/>
     <use xlink:href="#DejaVuSansMono-20" x="903.076172"/>
     <use xlink:href="#DejaVuSansMono-20" x="963.28125"/>
     <use xlink:href="#DejaVuSansMono-20" x="1023.486328"/>
     <use xlink:href="#DejaVuSansMono-20" x="1083.691406"/>
     <use xlink:href="#DejaVuSansMono-20" x="1143.896484"/>
     <use xlink:href="#DejaVuSansMono-20" x="1204.101562"/>
     <use xlink:href="#DejaVuSansMono-20" x="1264.306641"/>
     <use xlink:href="#DejaVuSansMono-20" x="1324.511719"/>
     <use xlink:href="#DejaVuSansMono-20" x="1384.716797"/>
     <use xlink:href="#DejaVuSansMono-20" x="1444.921875"/>
     <use xlink:href="#DejaVuSansMono-20" x="1505.126953"/>
     <use xlink:href="#DejaVuSansMono-20" x="1565.332031"/>
     <use xlink:href="#DejaVuSansMono-20" x="1625.537109"/>
     <use xlink:href="#DejaVuSansMono-20" x="1685.742188"/>
     <use xlink:href="#DejaVuSansMono-20" x="1745.947266"/>
     <use xlink:href="#DejaVuSansMono-20" x="1806.152344"/>
     <use xlink:href="#DejaVuSansMono-20" x="1866.357422"/>
     <use xlink:href="#DejaVuSansMono-20" x="1926.5625"/>
     <use xlink:href="#DejaVuSansMono-20" x="1986.767578"/>
     <use xlink:href="#DejaVuSansMono-20" x="2046.972656"/>
     <use xlink:href="#DejaVuSansMono-20" x="2107.177734"/>
     <use xlink:href="#DejaVuSansMono-20" x="2167.382812"/>
     <use xlink:href="#DejaVuSansMono-5e" x="2227.587891"/>
    </g>
    <!--                                      | -->
    <g transform="translate(183.252656 201.365859) scale(0.09 -0.09)">
     <use xlink:href="#DejaVuSansMono-20"/>
     <use xlink:href="#DejaVuSansMono-20" x="60.205078"/>
     <use xlink:href="#DejaVuSansMono-20" x="120.410156"/>
     <use xlink:href="#DejaVuSansMono-20" x="180.615234"/>
     <use xlink:href="#DejaVuSansMono-20" x="240.820312"/>
     <use xlink:href="#DejaVuSansMono-20" x="301.025391"/>
     <use xlink:href="#DejaVuSansMono-20" x="361.230469"/>
     <use xlink:href="#DejaVuSansMono-20" x="421.435547"/>
     <use xlink:href="#DejaVuSansMono-20" x="481.640625"/>
     <use xlink:href="#DejaVuSansMono-20" x="541.845703"/>
     <use xlink:href="#DejaVuSansMono-20" x="602.050781"/>
     <use xlink:href="#DejaVuSansMono-20" x="662.255859"/>
     <use xlink:href="#DejaVuSansMono-20" x="722.460938"/>
     <use xlink:href="#DejaVuSansMono-20" x="782.666016"/>
     <use xlink:href="#DejaVuSansMono-20" x="842.871094"/>
     <use xlink:href="#DejaVuSansMono-20" x="903.076172"/>
     <use xlink:href="#DejaVuSansMono-20" x="963.28125"/>
     <use xlink:href="#DejaVuSansMono-20" x="1023.486328"/>
     <use xlink:href="#DejaVuSansMono-20" x="1083.691406"/>
     <use xlink:href="#DejaVuSansMono-20" x="1143.896484"/>
     <use xlink:href="#DejaVuSansMono-20" x="1204.101562"/>
     <use xlink:href="#DejaVuSansMono-20" x="1264.306641"/>
     <use xlink:href="#DejaVuSansMono-20" x="1324.511719"/>
     <use xlink:href="#DejaVuSansMono-20" x="1384.716797"/>
     <use xlink:href="#DejaVuSansMono-20" x="1444.921875"/>
     <use xlink:href="#DejaVuSansMono-20" x="1505.126953"/>
     <use xlink:href="#DejaVuSansMono-20" x="1565.332031"/>
     <use xlink:href="#DejaVuSansMono-20" x="1625.537109"/>
     <use xlink:href="#DejaVuSansMono-20" x="1685.742188"/>
     <use xlink:href="#DejaVuSansMono-20" x="1745.947266"/>
     <use xlink:href="#DejaVuSansMono-20" x="1806.152344"/>
     <use xlink:href="#DejaVuSansMono-20" x="1866.357422"/>
     <use xlink:href="#DejaVuSansMono-20" x="1926.5625"/>
     <use xlink:href="#DejaVuSansMono-20" x="1986.767578"/>
     <use xlink:href="#DejaVuSansMono-20" x="2046.972656"/>
     <use xlink:href="#DejaVuSansMono-20" x="2107.177734"/>
     <use xlink:href="#DejaVuSansMono-20" x="2167.382812"/>
     <use xlink:href="#DejaVuSansMono-7c" x="2227.587891"/>
    </g>
    <!--                                    CLOSE_WAIT ← FIN -->
    <g transform="translate(148.033828 211.751578) scale(0.09 -0.09)">
     <defs>
      <path id="DejaVuSansMono-4f" d="M 2828 2328 
Q 2828 3356 2617 3797 
Q 2406 4238 1925 4238 
Q 1447 4238 1236 3797 
Q 1025 3356 1025 2328 
Q 1025 1303 1236 862 
Q 1447 422 1925 422 
Q 2406 422 2617 861 
Q 2828 1300 2828 2328 
z
M 3488 2328 
Q 3488 1109 3102 509 
Q 2716 -91 1925 -91 
Q 1134 -91 750 506 
Q 366 1103 366 2328 
Q 366 3550 752 4150 
Q 1138 4750 1925 4750 
Q 2716 4750 3102 4150 
Q 3488 3550 3488 2328 
z
" transform="scale(0.015625)"/>
      <path id="DejaVuSansMono-2190" d="M 206 1625 
L 206 1881 
L 1116 2791 
L 1397 2509 
L 897 2009 
L 3647 2009 
L 3647 1497 
L 897 1497 
L 1397 997 
L 1116 716 
L 206 1625 
z
" transform="scale(0.015625)"/>
     </defs>
     <use xlink:href="#DejaVuSansMono-20"/>
     <use xlink:href="#DejaVuSansMono-20" x="60.205078"/>
     <use xlink:href="#DejaVuSansMono-20" x="120.410156"/>
     <use xlink:href="#DejaVuSansMono-20" x="180.615234"/>
     <use xlink:href="#DejaVuSansMono-20" x="240.820312"/>
     <use xlink:href="#DejaVuSansMono-20" x="301.025391"/>
     <use xlink:href="#DejaVuSansMono-20" x="361.230469"/>
     <use xlink:href="#DejaVuSansMono-20" x="421.435547"/>
     <use xlink:href="#DejaVuSansMono-20" x="481.640625"/>
     <use xlink:href="#DejaVuSansMono-20" x="541.845703"/>
     <use xlink:href="#DejaVuSansMono-20" x="602.050781"/>
     <use xlink:href="#DejaVuSansMono-20" x="662.255859"/>
     <use xlink:href="#DejaVuSansMono-20" x="722.460938"/>
     <use xlink:href="#DejaVuSansMono-20" x="782.666016"/>
     <use xlink:href="#DejaVuSansMono-20" x="842.871094"/>
     <use xlink:href="#DejaVuSansMono-20" x="903.076172"/>
     <use xlink:href="#DejaVuSansMono-20" x="963.28125"/>
     <use xlink:href="#DejaVuSansMono-20" x="1023.486328"/>
     <use xlink:href="#DejaVuSansMono-20" x="1083.691406"/>
     <use xlink:href="#DejaVuSansMono-20" x="1143.896484"/>
     <use xlink:href="#DejaVuSansMono-20" x="1204.101562"/>
     <use xlink:href="#DejaVuSansMono-20" x="1264.306641"/>
     <use xlink:href="#DejaVuSansMono-20" x="1324.511719"/>
     <use xlink:href="#DejaVuSansMono-20" x="1384.716797"/>
     <use xlink:href="#DejaVuSansMono-20" x="1444.921875"/>
     <use xlink:href="#DejaVuSansMono-20" x="1505.126953"/>
     <use xlink:href="#DejaVuSansMono-20" x="1565.332031"/>
     <use xlink:href="#DejaVuSansMono-20" x="1625.537109"/>
     <use xlink:href="#DejaVuSansMono-20" x="1685.742188"/>
     <use xlink:href="#DejaVuSansMono-20" x="1745.947266"/>
     <use xlink:href="#DejaVuSansMono-20" x="1806.152344"/>
     <use xlink:href="#DejaVuSansMono-20" x="1866.357422"/>
     <use xlink:href="#DejaVuSansMono-20" x="1926.5625"/>
     <use xlink:href="#DejaVuSansMono-20" x="1986.767578"/>
     <use xlink:href="#DejaVuSansMono-20" x="2046.972656"/>
     <use xlink:href="#DejaVuSansMono-43" x="2107.177734"/>
     <use xlink:href="#DejaVuSansMono-4c" x="2167.382812"/>
     <use xlink:href="#DejaVuSansMono-4f" x="2227.587891"/>
     <use xlink:href="#DejaVuSansMono-53" x="2287.792969"/>
     <use xlink:href="#DejaVuSansMono-45" x="2347.998047"/>
     <use xlink:href="#DejaVuSansMono-5f" x="2408.203125"/>
     <use xlink:href="#DejaVuSansMono-57" x="2468.408203"/>
     <use xlink:href="#DejaVuSansMono-41" x="2528.613281"/>
     <use xlink:href="#DejaVuSansMono-49" x="2588.818359"/>
     <use xlink:href="#DejaVuSansMono-54" x="2649.023438"/>
     <use xlink:href="#DejaVuSansMono-20" x="2709.228516"/>
     <use xlink:href="#DejaVuSansMono-2190" x="2769.433594"/>
     <use xlink:href="#DejaVuSansMono-20" x="2829.638672"/>
     <use xlink:href="#DejaVuSansMono-46" x="2889.84375"/>
     <use xlink:href="#DejaVuSansMono-49" x="2950.048828"/>
     <use xlink:href="#DejaVuSansMono-4e" x="3010.253906"/>
    </g>
    <!--  -->
    <g transform="translate(286.2 222.137297) scale(0.09 -0.09)"/>
   </g>
  </g>
 </g>
</svg>
