<?xml version="1.0" encoding="utf-8" standalone="no"?>
<!DOCTYPE svg PUBLIC "-//W3C//DTD SVG 1.1//EN"
  "http://www.w3.org/Graphics/SVG/1.1/DTD/svg11.dtd">
<svg xmlns:xlink="http://www.w3.org/1999/xlink" width="572.4pt" height="347.04pt" viewBox="0 0 572.4 347.04" xmlns="http://www.w3.org/2000/svg" version="1.1">
 <metadata>
  <rdf:RDF xmlns:dc="http://purl.org/dc/elements/1.1/" xmlns:cc="http://creativecommons.org/ns#" xmlns:rdf="http://www.w3.org/1999/02/22-rdf-syntax-ns#">
   <cc:Work>
    <dc:type rdf:resource="http://purl.org/dc/dcmitype/StillImage"/>
    <dc:date>2025-12-18T15:28:37.735901</dc:date>
    <dc:format>image/svg+xml</dc:format>
    <dc:creator>
     <cc:Agent>
      <dc:title>Matplotlib v3.7.5, https://matplotlib.org/</dc:title>
     </cc:Agent>
    </dc:creator>
   </cc:Work>
  </rdf:RDF>
 </metadata>
 <defs>
  <style type="text/css">*{stroke-linejoin: round; stroke-linecap: butt}</style>
 </defs>
 <g id="figure_1">
  <g id="patch_1">
   <path d="M 0 347.04 
L 572.4 347.04 
L 572.4 -0 
L 0 -0 
z
" style="fill: #ffffff"/>
  </g>
  <g id="axes_1">
   <g id="text_1">
    <!--  -->
    <g transform="translate(286.2 109.521422) scale(0.09 -0.09)"/>
    <!-- UDP Header (RFC 768) -->
    <g transform="translate(232.017187 119.656828) scale(0.09 -0.09)">
     <defs>
      <path id="DejaVuSansMono-55" d="M 459 1791 
L 459 4666 
L 1094 4666 
L 1094 1503 
Q 1094 1163 1112 1017 
Q 1131 872 1178 794 
Q 1278 609 1467 515 
Q 1656 422 1925 422 
Q 2197 422 2384 515 
Q 2572 609 2675 794 
Q 2722 872 2740 1015 
Q 2759 1159 2759 1497 
L 2759 4666 
L 3391 4666 
L 3391 1791 
Q 3391 1075 3302 773 
Q 3213 472 2994 275 
Q 2788 91 2522 0 
Q 2256 -91 1925 -91 
Q 1597 -91 1331 0 
Q 1066 91 856 275 
Q 641 469 550 776 
Q 459 1084 459 1791 
z
" transform="scale(0.015625)"/>
      <path id="DejaVuSansMono-44" d="M 1363 519 
Q 2159 519 2475 911 
Q 2791 1303 2791 2328 
Q 2791 3363 2477 3755 
Q 2163 4147 1363 4147 
L 1063 4147 
L 1063 519 
L 1363 519 
z
M 1375 4666 
Q 2444 4666 2950 4097 
Q 3456 3528 3456 2328 
Q 3456 1134 2950 567 
Q 2444 0 1375 0 
L 428 0 
L 428 4666 
L 1375 4666 
z
" transform="scale(0.015625)"/>
      <path id="DejaVuSansMono-50" d="M 1247 4147 
L 1247 2394 
L 1978 2394 
Q 2416 2394 2661 2625 
Q 2906 2856 2906 3272 
Q 2906 3688 2662 3917 
Q 2419 4147 1978 4147 
L 1247 4147 
z
M 616 4666 
L 1978 4666 
Q 2759 4666 3162 4311 
Q 3566 3956 3566 3272 
Q 3566 2581 3164 2228 
Q 2763 1875 1978 1875 
L 1247 1875 
L 1247 0 
L 616 0 
L 616 4666 
z
" transform="scale(0.015625)"/>
      <path id="DejaVuSansMono-20" transform="scale(0.015625)"/>
      <path id="DejaVuSansMono-48" d="M 428 4666 
L 1063 4666 
L 1063 2753 
L 2791 2753 
L 2791 4666 
L 3425 4666 
L 3425 0 
L 2791 0 
L 2791 2222 
L 1063 2222 
L 1063 0 
L 428 0 
L 428 4666 
z
" transform="scale(0.015625)"/>
      <path id="DejaVuSansMono-65" d="M 3475 1894 
L 3475 1613 
L 984 1613 
L 984 1594 
Q 984 1022 1282 709 
Q 1581 397 2125 397 
Q 2400 397 2700 484 
Q 3000 572 3341 750 
L 3341 178 
Q 3013 44 2708 -23 
Q 2403 -91 2119 -91 
Q 1303 -91 843 398 
Q 384 888 384 1747 
Q 384 2584 834 3084 
Q 1284 3584 2034 3584 
Q 2703 3584 3089 3131 
Q 3475 2678 3475 1894 
z
M 2900 2063 
Q 2888 2569 2661 2833 
Q 2434 3097 2009 3097 
Q 1594 3097 1325 2822 
Q 1056 2547 1006 2059 
L 2900 2063 
z
" transform="scale(0.015625)"/>
      <path id="DejaVuSansMono-61" d="M 2194 1759 
L 2003 1759 
Q 1500 1759 1245 1582 
Q 991 1406 991 1056 
Q 991 741 1181 566 
Q 1372 391 1709 391 
Q 2184 391 2456 720 
Q 2728 1050 2731 1631 
L 2731 1759 
L 2194 1759 
z
M 3309 1997 
L 3309 0 
L 2731 0 
L 2731 519 
Q 2547 206 2267 57 
Q 1988 -91 1588 -91 
Q 1053 -91 734 211 
Q 416 513 416 1019 
Q 416 1603 808 1906 
Q 1200 2209 1959 2209 
L 2731 2209 
L 2731 2300 
Q 2728 2719 2518 2908 
Q 2309 3097 1850 3097 
Q 1556 3097 1256 3012 
Q 956 2928 672 2766 
L 672 3341 
Q 991 3463 1283 3523 
Q 1575 3584 1850 3584 
Q 2284 3584 2592 3456 
Q 2900 3328 3091 3072 
Q 3209 2916 3259 2686 
Q 3309 2456 3309 1997 
z
" transform="scale(0.015625)"/>
      <path id="DejaVuSansMono-64" d="M 2681 3053 
L 2681 4863 
L 3256 4863 
L 3256 0 
L 2681 0 
L 2681 441 
Q 2538 181 2298 45 
Q 2059 -91 1747 -91 
Q 1113 -91 748 401 
Q 384 894 384 1759 
Q 384 2613 750 3098 
Q 1116 3584 1747 3584 
Q 2063 3584 2303 3448 
Q 2544 3313 2681 3053 
z
M 991 1747 
Q 991 1078 1203 737 
Q 1416 397 1831 397 
Q 2247 397 2464 740 
Q 2681 1084 2681 1747 
Q 2681 2413 2464 2755 
Q 2247 3097 1831 3097 
Q 1416 3097 1203 2756 
Q 991 2416 991 1747 
z
" transform="scale(0.015625)"/>
      <path id="DejaVuSansMono-72" d="M 3609 2778 
Q 3425 2922 3234 2987 
Q 3044 3053 2816 3053 
Q 2278 3053 1993 2715 
Q 1709 2378 1709 1741 
L 1709 0 
L 1131 0 
L 1131 3500 
L 1709 3500 
L 1709 2816 
Q 1853 3188 2151 3386 
Q 2450 3584 2859 3584 
Q 3072 3584 3256 3531 
Q 3441 3478 3609 3366 
L 3609 2778 
z
" transform="scale(0.015625)"/>
      <path id="DejaVuSansMono-28" d="M 2766 4856 
Q 2350 4144 2145 3436 
Q 1941 2728 1941 2009 
Q 1941 1294 2145 584 
Q 2350 -125 2766 -844 
L 2266 -844 
Q 1794 -100 1562 604 
Q 1331 1309 1331 2009 
Q 1331 2706 1562 3412 
Q 1794 4119 2266 4856 
L 2766 4856 
z
" transform="scale(0.015625)"/>
      <path id="DejaVuSansMono-52" d="M 2375 2203 
Q 2619 2141 2791 1967 
Q 2963 1794 3219 1275 
L 3853 0 
L 3175 0 
L 2619 1178 
Q 2378 1681 2186 1826 
Q 1994 1972 1684 1972 
L 1081 1972 
L 1081 0 
L 447 0 
L 447 4666 
L 1747 4666 
Q 2516 4666 2925 4319 
Q 3334 3972 3334 3316 
Q 3334 2853 3082 2561 
Q 2831 2269 2375 2203 
z
M 1081 4147 
L 1081 2491 
L 1772 2491 
Q 2225 2491 2447 2694 
Q 2669 2897 2669 3316 
Q 2669 3719 2433 3933 
Q 2197 4147 1747 4147 
L 1081 4147 
z
" transform="scale(0.015625)"/>
      <path id="DejaVuSansMono-46" d="M 728 4666 
L 3475 4666 
L 3475 4134 
L 1363 4134 
L 1363 2759 
L 3278 2759 
L 3278 2228 
L 1363 2228 
L 1363 0 
L 728 0 
L 728 4666 
z
" transform="scale(0.015625)"/>
      <path id="DejaVuSansMono-43" d="M 3353 166 
Q 3113 38 2859 -26 
Q 2606 -91 2322 -91 
Q 1425 -91 929 543 
Q 434 1178 434 2328 
Q 434 3472 932 4111 
Q 1431 4750 2322 4750 
Q 2606 4750 2859 4686 
Q 3113 4622 3353 4494 
L 3353 3847 
Q 3122 4038 2856 4138 
Q 2591 4238 2322 4238 
Q 1706 4238 1400 3763 
Q 1094 3288 1094 2328 
Q 1094 1372 1400 897 
Q 1706 422 2322 422 
Q 2597 422 2861 522 
Q 3125 622 3353 813 
L 3353 166 
z
" transform="scale(0.015625)"/>
      <path id="DejaVuSansMono-37" d="M 434 4666 
L 3372 4666 
L 3372 4397 
L 1703 0 
L 1044 0 
L 2669 4134 
L 434 4134 
L 434 4666 
z
" transform="scale(0.015625)"/>
      <path id="DejaVuSansMono-36" d="M 3097 4563 
L 3097 3981 
Q 2900 4097 2678 4158 
Q 2456 4219 2216 4219 
Q 1616 4219 1306 3767 
Q 997 3316 997 2438 
Q 1147 2750 1412 2917 
Q 1678 3084 2022 3084 
Q 2697 3084 3067 2670 
Q 3438 2256 3438 1497 
Q 3438 741 3056 325 
Q 2675 -91 1984 -91 
Q 1172 -91 794 492 
Q 416 1075 416 2328 
Q 416 3509 870 4129 
Q 1325 4750 2188 4750 
Q 2419 4750 2650 4701 
Q 2881 4653 3097 4563 
z
M 1972 2591 
Q 1569 2591 1337 2300 
Q 1106 2009 1106 1497 
Q 1106 984 1337 693 
Q 1569 403 1972 403 
Q 2391 403 2603 679 
Q 2816 956 2816 1497 
Q 2816 2041 2603 2316 
Q 2391 2591 1972 2591 
z
" transform="scale(0.015625)"/>
      <path id="DejaVuSansMono-38" d="M 1925 2216 
Q 1503 2216 1273 1980 
Q 1044 1744 1044 1313 
Q 1044 881 1276 642 
Q 1509 403 1925 403 
Q 2350 403 2579 639 
Q 2809 875 2809 1313 
Q 2809 1741 2576 1978 
Q 2344 2216 1925 2216 
z
M 1375 2478 
Q 972 2581 745 2862 
Q 519 3144 519 3541 
Q 519 4097 897 4423 
Q 1275 4750 1925 4750 
Q 2578 4750 2956 4423 
Q 3334 4097 3334 3541 
Q 3334 3144 3107 2862 
Q 2881 2581 2478 2478 
Q 2947 2375 3195 2062 
Q 3444 1750 3444 1253 
Q 3444 622 3041 265 
Q 2638 -91 1925 -91 
Q 1213 -91 811 264 
Q 409 619 409 1247 
Q 409 1747 657 2061 
Q 906 2375 1375 2478 
z
M 1147 3481 
Q 1147 3106 1347 2909 
Q 1547 2713 1925 2713 
Q 2306 2713 2506 2909 
Q 2706 3106 2706 3481 
Q 2706 3863 2507 4063 
Q 2309 4263 1925 4263 
Q 1547 4263 1347 4061 
Q 1147 3859 1147 3481 
z
" transform="scale(0.015625)"/>
      <path id="DejaVuSansMono-29" d="M 1088 4856 
L 1588 4856 
Q 2059 4119 2290 3412 
Q 2522 2706 2522 2009 
Q 2522 1306 2290 600 
Q 2059 -106 1588 -844 
L 1088 -844 
Q 1503 -119 1708 590 
Q 1913 1300 1913 2009 
Q 1913 2722 1708 3431 
Q 1503 4141 1088 4856 
z
" transform="scale(0.015625)"/>
     </defs>
     <use xlink:href="#DejaVuSansMono-55"/>
     <use xlink:href="#DejaVuSansMono-44" x="60.205078"/>
     <use xlink:href="#DejaVuSansMono-50" x="120.410156"/>
     <use xlink:href="#DejaVuSansMono-20" x="180.615234"/>
     <use xlink:href="#DejaVuSansMono-48" x="240.820312"/>
     <use xlink:href="#DejaVuSansMono-65" x="301.025391"/>
     <use xlink:href="#DejaVuSansMono-61" x="361.230469"/>
     <use xlink:href="#DejaVuSansMono-64" x="421.435547"/>
     <use xlink:href="#DejaVuSansMono-65" x="481.640625"/>
     <use xlink:href="#DejaVuSansMono-72" x="541.845703"/>
     <use xlink:href="#DejaVuSansMono-20" x="602.050781"/>
     <use xlink:href="#DejaVuSansMono-28" x="662.255859"/>
     <use xlink:href="#DejaVuSansMono-52" x="722.460938"/>
     <use xlink:href="#DejaVuSansMono-46" x="782.666016"/>
     <use xlink:href="#DejaVuSansMono-43" x="842.871094"/>
     <use xlink:href="#DejaVuSansMono-20" x="903.076172"/>
     <use xlink:href="#DejaVuSansMono-37" x="963.28125"/>
     <use xlink:href="#DejaVuSansMono-36" x="1023.486328"/>
     <use xlink:href="#DejaVuSansMono-38" x="1083.691406"/>
     <use xlink:href="#DejaVuSansMono-29" x="1143.896484"/>
    </g>
    <!-- +- - - - - - - - - - - - - - - - - - - - - - - - - - -+ -->
    <g transform="translate(207.634922 129.792234) scale(0.09 -0.09)">
     <defs>
      <path id="DejaVuSansMono-2b" d="M 2188 3659 
L 2188 2272 
L 3578 2272 
L 3578 1741 
L 2188 1741 
L 2188 353 
L 1663 353 
L 1663 1741 
L 275 1741 
L 275 2272 
L 1663 2272 
L 1663 3659 
L 2188 3659 
z
" transform="scale(0.015625)"/>
      <path id="DejaVuSansMono-2d" d="M 1113 2009 
L 2741 2009 
L 2741 1497 
L 1113 1497 
L 1113 2009 
z
" transform="scale(0.015625)"/>
     </defs>
     <use xlink:href="#DejaVuSansMono-2b"/>
     <use xlink:href="#DejaVuSansMono-2d" x="60.205078"/>
     <use xlink:href="#DejaVuSansMono-2d" x="120.410156"/>
     <use xlink:href="#DejaVuSansMono-2d" x="180.615234"/>
     <use xlink:href="#DejaVuSansMono-2d" x="240.820312"/>
     <use xlink:href="#DejaVuSansMono-2d" x="301.025391"/>
     <use xlink:href="#DejaVuSansMono-2d" x="361.230469"/>
     <use xlink:href="#DejaVuSansMono-2d" x="421.435547"/>
     <use xlink:href="#DejaVuSansMono-2d" x="481.640625"/>
     <use xlink:href="#DejaVuSansMono-2d" x="541.845703"/>
     <use xlink:href="#DejaVuSansMono-2d" x="602.050781"/>
     <use xlink:href="#DejaVuSansMono-2d" x="662.255859"/>
     <use xlink:href="#DejaVuSansMono-2d" x="722.460938"/>
     <use xlink:href="#DejaVuSansMono-2d" x="782.666016"/>
     <use xlink:href="#DejaVuSansMono-2d" x="842.871094"/>
     <use xlink:href="#DejaVuSansMono-2d" x="903.076172"/>
     <use xlink:href="#DejaVuSansMono-2d" x="963.28125"/>
     <use xlink:href="#DejaVuSansMono-2d" x="1023.486328"/>
     <use xlink:href="#DejaVuSansMono-2d" x="1083.691406"/>
     <use xlink:href="#DejaVuSansMono-2d" x="1143.896484"/>
     <use xlink:href="#DejaVuSansMono-2d" x="1204.101562"/>
     <use xlink:href="#DejaVuSansMono-2d" x="1264.306641"/>
     <use xlink:href="#DejaVuSansMono-2d" x="1324.511719"/>
     <use xlink:href="#DejaVuSansMono-2d" x="1384.716797"/>
     <use xlink:href="#DejaVuSansMono-2d" x="1444.921875"/>
     <use xlink:href="#DejaVuSansMono-2d" x="1505.126953"/>
     <use xlink:href="#DejaVuSansMono-2d" x="1565.332031"/>
     <use xlink:href="#DejaVuSansMono-2d" x="1625.537109"/>
     <use xlink:href="#DejaVuSansMono-2b" x="1685.742188"/>
    </g>
    <!-- | Source Port               | -->
    <g transform="translate(207.634922 139.927641) scale(0.09 -0.09)">
     <defs>
      <path id="DejaVuSansMono-7c" d="M 2194 4891 
L 2194 -1509 
L 1656 -1509 
L 1656 4891 
L 2194 4891 
z
" transform="scale(0.015625)"/>
      <path id="DejaVuSansMono-53" d="M 3163 4506 
L 3163 3866 
Q 2875 4050 2586 4144 
Q 2297 4238 2003 4238 
Q 1556 4238 1297 4030 
Q 1038 3822 1038 3469 
Q 1038 3159 1208 2996 
Q 1378 2834 1844 2725 
L 2175 2650 
Q 2831 2497 3131 2169 
Q 3431 1841 3431 1275 
Q 3431 609 3018 259 
Q 2606 -91 1819 -91 
Q 1491 -91 1159 -20 
Q 828 50 494 191 
L 494 863 
Q 853 634 1173 528 
Q 1494 422 1819 422 
Q 2297 422 2562 636 
Q 2828 850 2828 1234 
Q 2828 1584 2645 1768 
Q 2463 1953 2009 2053 
L 1672 2131 
Q 1022 2278 728 2575 
Q 434 2872 434 3372 
Q 434 3997 854 4373 
Q 1275 4750 1972 4750 
Q 2241 4750 2537 4689 
Q 2834 4628 3163 4506 
z
" transform="scale(0.015625)"/>
      <path id="DejaVuSansMono-6f" d="M 1925 3097 
Q 1488 3097 1263 2756 
Q 1038 2416 1038 1747 
Q 1038 1081 1263 739 
Q 1488 397 1925 397 
Q 2366 397 2591 739 
Q 2816 1081 2816 1747 
Q 2816 2416 2591 2756 
Q 2366 3097 1925 3097 
z
M 1925 3584 
Q 2653 3584 3039 3112 
Q 3425 2641 3425 1747 
Q 3425 850 3040 379 
Q 2656 -91 1925 -91 
Q 1197 -91 812 379 
Q 428 850 428 1747 
Q 428 2641 812 3112 
Q 1197 3584 1925 3584 
z
" transform="scale(0.015625)"/>
      <path id="DejaVuSansMono-75" d="M 609 1325 
L 609 3494 
L 1184 3494 
L 1184 1325 
Q 1184 853 1351 631 
Q 1519 409 1869 409 
Q 2275 409 2490 695 
Q 2706 981 2706 1516 
L 2706 3494 
L 3284 3494 
L 3284 0 
L 2706 0 
L 2706 525 
Q 2553 222 2289 65 
Q 2025 -91 1672 -91 
Q 1134 -91 871 261 
Q 609 613 609 1325 
z
" transform="scale(0.015625)"/>
      <path id="DejaVuSansMono-63" d="M 3316 178 
Q 3084 44 2839 -23 
Q 2594 -91 2338 -91 
Q 1525 -91 1067 396 
Q 609 884 609 1747 
Q 609 2609 1067 3096 
Q 1525 3584 2338 3584 
Q 2591 3584 2831 3518 
Q 3072 3453 3316 3316 
L 3316 2713 
Q 3088 2916 2858 3006 
Q 2628 3097 2338 3097 
Q 1797 3097 1506 2747 
Q 1216 2397 1216 1747 
Q 1216 1100 1508 748 
Q 1800 397 2338 397 
Q 2638 397 2875 489 
Q 3113 581 3316 775 
L 3316 178 
z
" transform="scale(0.015625)"/>
      <path id="DejaVuSansMono-74" d="M 1919 4494 
L 1919 3500 
L 3225 3500 
L 3225 3053 
L 1919 3053 
L 1919 1153 
Q 1919 766 2066 612 
Q 2213 459 2578 459 
L 3225 459 
L 3225 0 
L 2522 0 
Q 1875 0 1609 259 
Q 1344 519 1344 1153 
L 1344 3053 
L 409 3053 
L 409 3500 
L 1344 3500 
L 1344 4494 
L 1919 4494 
z
" transform="scale(0.015625)"/>
     </defs>
     <use xlink:href="#DejaVuSansMono-7c"/>
     <use xlink:href="#DejaVuSansMono-20" x="60.205078"/>
     <use xlink:href="#DejaVuSansMono-53" x="120.410156"/>
     <use xlink:href="#DejaVuSansMono-6f" x="180.615234"/>
     <use xlink:href="#DejaVuSansMono-75" x="240.820312"/>
     <use xlink:href="#DejaVuSansMono-72" x="301.025391"/>
     <use xlink:href="#DejaVuSansMono-63" x="361.230469"/>
     <use xlink:href="#DejaVuSansMono-65" x="421.435547"/>
     <use xlink:href="#DejaVuSansMono-20" x="481.640625"/>
     <use xlink:href="#DejaVuSansMono-50" x="541.845703"/>
     <use xlink:href="#DejaVuSansMono-6f" x="602.050781"/>
     <use xlink:href="#DejaVuSansMono-72" x="662.255859"/>
     <use xlink:href="#DejaVuSansMono-74" x="722.460938"/>
     <use xlink:href="#DejaVuSansMono-20" x="782.666016"/>
     <use xlink:href="#DejaVuSansMono-20" x="842.871094"/>
     <use xlink:href="#DejaVuSansMono-20" x="903.076172"/>
     <use xlink:href="#DejaVuSansMono-20" x="963.28125"/>
     <use xlink:href="#DejaVuSansMono-20" x="1023.486328"/>
     <use xlink:href="#DejaVuSansMono-20" x="1083.691406"/>
     <use xlink:href="#DejaVuSansMono-20" x="1143.896484"/>
     <use xlink:href="#DejaVuSansMono-20" x="1204.101562"/>
     <use xlink:href="#DejaVuSansMono-20" x="1264.306641"/>
     <use xlink:href="#DejaVuSansMono-20" x="1324.511719"/>
     <use xlink:href="#DejaVuSansMono-20" x="1384.716797"/>
     <use xlink:href="#DejaVuSansMono-20" x="1444.921875"/>
     <use xlink:href="#DejaVuSansMono-20" x="1505.126953"/>
     <use xlink:href="#DejaVuSansMono-20" x="1565.332031"/>
     <use xlink:href="#DejaVuSansMono-20" x="1625.537109"/>
     <use xlink:href="#DejaVuSansMono-7c" x="1685.742188"/>
    </g>
    <!-- +- - - - - - - - - - - - - - - - - - - - - - - - - - -+ -->
    <g transform="translate(207.634922 150.313359) scale(0.09 -0.09)">
     <use xlink:href="#DejaVuSansMono-2b"/>
     <use xlink:href="#DejaVuSansMono-2d" x="60.205078"/>
     <use xlink:href="#DejaVuSansMono-2d" x="120.410156"/>
     <use xlink:href="#DejaVuSansMono-2d" x="180.615234"/>
     <use xlink:href="#DejaVuSansMono-2d" x="240.820312"/>
     <use xlink:href="#DejaVuSansMono-2d" x="301.025391"/>
     <use xlink:href="#DejaVuSansMono-2d" x="361.230469"/>
     <use xlink:href="#DejaVuSansMono-2d" x="421.435547"/>
     <use xlink:href="#DejaVuSansMono-2d" x="481.640625"/>
     <use xlink:href="#DejaVuSansMono-2d" x="541.845703"/>
     <use xlink:href="#DejaVuSansMono-2d" x="602.050781"/>
     <use xlink:href="#DejaVuSansMono-2d" x="662.255859"/>
     <use xlink:href="#DejaVuSansMono-2d" x="722.460938"/>
     <use xlink:href="#DejaVuSansMono-2d" x="782.666016"/>
     <use xlink:href="#DejaVuSansMono-2d" x="842.871094"/>
     <use xlink:href="#DejaVuSansMono-2d" x="903.076172"/>
     <use xlink:href="#DejaVuSansMono-2d" x="963.28125"/>
     <use xlink:href="#DejaVuSansMono-2d" x="1023.486328"/>
     <use xlink:href="#DejaVuSansMono-2d" x="1083.691406"/>
     <use xlink:href="#DejaVuSansMono-2d" x="1143.896484"/>
     <use xlink:href="#DejaVuSansMono-2d" x="1204.101562"/>
     <use xlink:href="#DejaVuSansMono-2d" x="1264.306641"/>
     <use xlink:href="#DejaVuSansMono-2d" x="1324.511719"/>
     <use xlink:href="#DejaVuSansMono-2d" x="1384.716797"/>
     <use xlink:href="#DejaVuSansMono-2d" x="1444.921875"/>
     <use xlink:href="#DejaVuSansMono-2d" x="1505.126953"/>
     <use xlink:href="#DejaVuSansMono-2d" x="1565.332031"/>
     <use xlink:href="#DejaVuSansMono-2d" x="1625.537109"/>
     <use xlink:href="#DejaVuSansMono-2b" x="1685.742188"/>
    </g>
    <!-- | Destination Port          | -->
    <g transform="translate(207.634922 160.448766) scale(0.09 -0.09)">
     <defs>
      <path id="DejaVuSansMono-73" d="M 3041 3378 
L 3041 2816 
Q 2794 2959 2544 3031 
Q 2294 3103 2034 3103 
Q 1644 3103 1451 2976 
Q 1259 2850 1259 2591 
Q 1259 2356 1403 2240 
Q 1547 2125 2119 2016 
L 2350 1972 
Q 2778 1891 2998 1647 
Q 3219 1403 3219 1013 
Q 3219 494 2850 201 
Q 2481 -91 1825 -91 
Q 1566 -91 1281 -36 
Q 997 19 666 128 
L 666 722 
Q 988 556 1281 473 
Q 1575 391 1838 391 
Q 2219 391 2428 545 
Q 2638 700 2638 978 
Q 2638 1378 1872 1531 
L 1847 1538 
L 1631 1581 
Q 1134 1678 906 1908 
Q 678 2138 678 2534 
Q 678 3038 1018 3311 
Q 1359 3584 1991 3584 
Q 2272 3584 2531 3532 
Q 2791 3481 3041 3378 
z
" transform="scale(0.015625)"/>
      <path id="DejaVuSansMono-69" d="M 800 3500 
L 2272 3500 
L 2272 447 
L 3413 447 
L 3413 0 
L 556 0 
L 556 447 
L 1697 447 
L 1697 3053 
L 800 3053 
L 800 3500 
z
M 1697 4863 
L 2272 4863 
L 2272 4134 
L 1697 4134 
L 1697 4863 
z
" transform="scale(0.015625)"/>
      <path id="DejaVuSansMono-6e" d="M 3284 2169 
L 3284 0 
L 2706 0 
L 2706 2169 
Q 2706 2641 2540 2862 
Q 2375 3084 2022 3084 
Q 1619 3084 1401 2798 
Q 1184 2513 1184 1978 
L 1184 0 
L 609 0 
L 609 3500 
L 1184 3500 
L 1184 2975 
Q 1338 3275 1600 3429 
Q 1863 3584 2222 3584 
Q 2756 3584 3020 3232 
Q 3284 2881 3284 2169 
z
" transform="scale(0.015625)"/>
     </defs>
     <use xlink:href="#DejaVuSansMono-7c"/>
     <use xlink:href="#DejaVuSansMono-20" x="60.205078"/>
     <use xlink:href="#DejaVuSansMono-44" x="120.410156"/>
     <use xlink:href="#DejaVuSansMono-65" x="180.615234"/>
     <use xlink:href="#DejaVuSansMono-73" x="240.820312"/>
     <use xlink:href="#DejaVuSansMono-74" x="301.025391"/>
     <use xlink:href="#DejaVuSansMono-69" x="361.230469"/>
     <use xlink:href="#DejaVuSansMono-6e" x="421.435547"/>
     <use xlink:href="#DejaVuSansMono-61" x="481.640625"/>
     <use xlink:href="#DejaVuSansMono-74" x="541.845703"/>
     <use xlink:href="#DejaVuSansMono-69" x="602.050781"/>
     <use xlink:href="#DejaVuSansMono-6f" x="662.255859"/>
     <use xlink:href="#DejaVuSansMono-6e" x="722.460938"/>
     <use xlink:href="#DejaVuSansMono-20" x="782.666016"/>
     <use xlink:href="#DejaVuSansMono-50" x="842.871094"/>
     <use xlink:href="#DejaVuSansMono-6f" x="903.076172"/>
     <use xlink:href="#DejaVuSansMono-72" x="963.28125"/>
     <use xlink:href="#DejaVuSansMono-74" x="1023.486328"/>
     <use xlink:href="#DejaVuSansMono-20" x="1083.691406"/>
     <use xlink:href="#DejaVuSansMono-20" x="1143.896484"/>
     <use xlink:href="#DejaVuSansMono-20" x="1204.101562"/>
     <use xlink:href="#DejaVuSansMono-20" x="1264.306641"/>
     <use xlink:href="#DejaVuSansMono-20" x="1324.511719"/>
     <use xlink:href="#DejaVuSansMono-20" x="1384.716797"/>
     <use xlink:href="#DejaVuSansMono-20" x="1444.921875"/>
     <use xlink:href="#DejaVuSansMono-20" x="1505.126953"/>
     <use xlink:href="#DejaVuSansMono-20" x="1565.332031"/>
     <use xlink:href="#DejaVuSansMono-20" x="1625.537109"/>
     <use xlink:href="#DejaVuSansMono-7c" x="1685.742188"/>
    </g>
    <!-- +- - - - - - - - - - - - - - - - - - - - - - - - - - -+ -->
    <g transform="translate(207.634922 170.834484) scale(0.09 -0.09)">
     <use xlink:href="#DejaVuSansMono-2b"/>
     <use xlink:href="#DejaVuSansMono-2d" x="60.205078"/>
     <use xlink:href="#DejaVuSansMono-2d" x="120.410156"/>
     <use xlink:href="#DejaVuSansMono-2d" x="180.615234"/>
     <use xlink:href="#DejaVuSansMono-2d" x="240.820312"/>
     <use xlink:href="#DejaVuSansMono-2d" x="301.025391"/>
     <use xlink:href="#DejaVuSansMono-2d" x="361.230469"/>
     <use xlink:href="#DejaVuSansMono-2d" x="421.435547"/>
     <use xlink:href="#DejaVuSansMono-2d" x="481.640625"/>
     <use xlink:href="#DejaVuSansMono-2d" x="541.845703"/>
     <use xlink:href="#DejaVuSansMono-2d" x="602.050781"/>
     <use xlink:href="#DejaVuSansMono-2d" x="662.255859"/>
     <use xlink:href="#DejaVuSansMono-2d" x="722.460938"/>
     <use xlink:href="#DejaVuSansMono-2d" x="782.666016"/>
     <use xlink:href="#DejaVuSansMono-2d" x="842.871094"/>
     <use xlink:href="#DejaVuSansMono-2d" x="903.076172"/>
     <use xlink:href="#DejaVuSansMono-2d" x="963.28125"/>
     <use xlink:href="#DejaVuSansMono-2d" x="1023.486328"/>
     <use xlink:href="#DejaVuSansMono-2d" x="1083.691406"/>
     <use xlink:href="#DejaVuSansMono-2d" x="1143.896484"/>
     <use xlink:href="#DejaVuSansMono-2d" x="1204.101562"/>
     <use xlink:href="#DejaVuSansMono-2d" x="1264.306641"/>
     <use xlink:href="#DejaVuSansMono-2d" x="1324.511719"/>
     <use xlink:href="#DejaVuSansMono-2d" x="1384.716797"/>
     <use xlink:href="#DejaVuSansMono-2d" x="1444.921875"/>
     <use xlink:href="#DejaVuSansMono-2d" x="1505.126953"/>
     <use xlink:href="#DejaVuSansMono-2d" x="1565.332031"/>
     <use xlink:href="#DejaVuSansMono-2d" x="1625.537109"/>
     <use xlink:href="#DejaVuSansMono-2b" x="1685.742188"/>
    </g>
    <!-- | Length                    | -->
    <g transform="translate(207.634922 180.969891) scale(0.09 -0.09)">
     <defs>
      <path id="DejaVuSansMono-4c" d="M 672 4666 
L 1306 4666 
L 1306 531 
L 3559 531 
L 3559 0 
L 672 0 
L 672 4666 
z
" transform="scale(0.015625)"/>
      <path id="DejaVuSansMono-67" d="M 2681 1778 
Q 2681 2425 2470 2761 
Q 2259 3097 1856 3097 
Q 1434 3097 1212 2761 
Q 991 2425 991 1778 
Q 991 1131 1214 792 
Q 1438 453 1863 453 
Q 2259 453 2470 793 
Q 2681 1134 2681 1778 
z
M 3256 225 
Q 3256 -563 2884 -969 
Q 2513 -1375 1791 -1375 
Q 1553 -1375 1293 -1331 
Q 1034 -1288 775 -1203 
L 775 -634 
Q 1081 -778 1331 -847 
Q 1581 -916 1791 -916 
Q 2256 -916 2468 -662 
Q 2681 -409 2681 141 
L 2681 166 
L 2681 556 
Q 2544 263 2306 119 
Q 2069 -25 1728 -25 
Q 1116 -25 750 465 
Q 384 956 384 1778 
Q 384 2603 750 3093 
Q 1116 3584 1728 3584 
Q 2066 3584 2300 3450 
Q 2534 3316 2681 3034 
L 2681 3488 
L 3256 3488 
L 3256 225 
z
" transform="scale(0.015625)"/>
      <path id="DejaVuSansMono-68" d="M 3284 2169 
L 3284 0 
L 2706 0 
L 2706 2169 
Q 2706 2641 2540 2862 
Q 2375 3084 2022 3084 
Q 1619 3084 1401 2798 
Q 1184 2513 1184 1978 
L 1184 0 
L 609 0 
L 609 4863 
L 1184 4863 
L 1184 2975 
Q 1338 3275 1600 3429 
Q 1863 3584 2222 3584 
Q 2756 3584 3020 3232 
Q 3284 2881 3284 2169 
z
" transform="scale(0.015625)"/>
     </defs>
     <use xlink:href="#DejaVuSansMono-7c"/>
     <use xlink:href="#DejaVuSansMono-20" x="60.205078"/>
     <use xlink:href="#DejaVuSansMono-4c" x="120.410156"/>
     <use xlink:href="#DejaVuSansMono-65" x="180.615234"/>
     <use xlink:href="#DejaVuSansMono-6e" x="240.820312"/>
     <use xlink:href="#DejaVuSansMono-67" x="301.025391"/>
     <use xlink:href="#DejaVuSansMono-74" x="361.230469"/>
     <use xlink:href="#DejaVuSansMono-68" x="421.435547"/>
     <use xlink:href="#DejaVuSansMono-20" x="481.640625"/>
     <use xlink:href="#DejaVuSansMono-20" x="541.845703"/>
     <use xlink:href="#DejaVuSansMono-20" x="602.050781"/>
     <use xlink:href="#DejaVuSansMono-20" x="662.255859"/>
     <use xlink:href="#DejaVuSansMono-20" x="722.460938"/>
     <use xlink:href="#DejaVuSansMono-20" x="782.666016"/>
     <use xlink:href="#DejaVuSansMono-20" x="842.871094"/>
     <use xlink:href="#DejaVuSansMono-20" x="903.076172"/>
     <use xlink:href="#DejaVuSansMono-20" x="963.28125"/>
     <use xlink:href="#DejaVuSansMono-20" x="1023.486328"/>
     <use xlink:href="#DejaVuSansMono-20" x="1083.691406"/>
     <use xlink:href="#DejaVuSansMono-20" x="1143.896484"/>
     <use xlink:href="#DejaVuSansMono-20" x="1204.101562"/>
     <use xlink:href="#DejaVuSansMono-20" x="1264.306641"/>
     <use xlink:href="#DejaVuSansMono-20" x="1324.511719"/>
     <use xlink:href="#DejaVuSansMono-20" x="1384.716797"/>
     <use xlink:href="#DejaVuSansMono-20" x="1444.921875"/>
     <use xlink:href="#DejaVuSansMono-20" x="1505.126953"/>
     <use xlink:href="#DejaVuSansMono-20" x="1565.332031"/>
     <use xlink:href="#DejaVuSansMono-20" x="1625.537109"/>
     <use xlink:href="#DejaVuSansMono-7c" x="1685.742188"/>
    </g>
    <!-- +- - - - - - - - - - - - - - - - - - - - - - - - - - -+ -->
    <g transform="translate(207.634922 191.355609) scale(0.09 -0.09)">
     <use xlink:href="#DejaVuSansMono-2b"/>
     <use xlink:href="#DejaVuSansMono-2d" x="60.205078"/>
     <use xlink:href="#DejaVuSansMono-2d" x="120.410156"/>
     <use xlink:href="#DejaVuSansMono-2d" x="180.615234"/>
     <use xlink:href="#DejaVuSansMono-2d" x="240.820312"/>
     <use xlink:href="#DejaVuSansMono-2d" x="301.025391"/>
     <use xlink:href="#DejaVuSansMono-2d" x="361.230469"/>
     <use xlink:href="#DejaVuSansMono-2d" x="421.435547"/>
     <use xlink:href="#DejaVuSansMono-2d" x="481.640625"/>
     <use xlink:href="#DejaVuSansMono-2d" x="541.845703"/>
     <use xlink:href="#DejaVuSansMono-2d" x="602.050781"/>
     <use xlink:href="#DejaVuSansMono-2d" x="662.255859"/>
     <use xlink:href="#DejaVuSansMono-2d" x="722.460938"/>
     <use xlink:href="#DejaVuSansMono-2d" x="782.666016"/>
     <use xlink:href="#DejaVuSansMono-2d" x="842.871094"/>
     <use xlink:href="#DejaVuSansMono-2d" x="903.076172"/>
     <use xlink:href="#DejaVuSansMono-2d" x="963.28125"/>
     <use xlink:href="#DejaVuSansMono-2d" x="1023.486328"/>
     <use xlink:href="#DejaVuSansMono-2d" x="1083.691406"/>
     <use xlink:href="#DejaVuSansMono-2d" x="1143.896484"/>
     <use xlink:href="#DejaVuSansMono-2d" x="1204.101562"/>
     <use xlink:href="#DejaVuSansMono-2d" x="1264.306641"/>
     <use xlink:href="#DejaVuSansMono-2d" x="1324.511719"/>
     <use xlink:href="#DejaVuSansMono-2d" x="1384.716797"/>
     <use xlink:href="#DejaVuSansMono-2d" x="1444.921875"/>
     <use xlink:href="#DejaVuSansMono-2d" x="1505.126953"/>
     <use xlink:href="#DejaVuSansMono-2d" x="1565.332031"/>
     <use xlink:href="#DejaVuSansMono-2d" x="1625.537109"/>
     <use xlink:href="#DejaVuSansMono-2b" x="1685.742188"/>
    </g>
    <!-- | Checksum                  | -->
    <g transform="translate(207.634922 201.491016) scale(0.09 -0.09)">
     <defs>
      <path id="DejaVuSansMono-6b" d="M 738 4863 
L 1331 4863 
L 1331 2047 
L 2841 3500 
L 3541 3500 
L 2163 2181 
L 3756 0 
L 3053 0 
L 1759 1806 
L 1331 1403 
L 1331 0 
L 738 0 
L 738 4863 
z
" transform="scale(0.015625)"/>
      <path id="DejaVuSansMono-6d" d="M 2113 3144 
Q 2219 3369 2383 3476 
Q 2547 3584 2778 3584 
Q 3200 3584 3373 3257 
Q 3547 2931 3547 2028 
L 3547 0 
L 3022 0 
L 3022 2003 
Q 3022 2744 2939 2923 
Q 2856 3103 2638 3103 
Q 2388 3103 2295 2911 
Q 2203 2719 2203 2003 
L 2203 0 
L 1678 0 
L 1678 2003 
Q 1678 2753 1589 2928 
Q 1500 3103 1269 3103 
Q 1041 3103 952 2911 
Q 863 2719 863 2003 
L 863 0 
L 341 0 
L 341 3500 
L 863 3500 
L 863 3200 
Q 966 3388 1120 3486 
Q 1275 3584 1472 3584 
Q 1709 3584 1867 3475 
Q 2025 3366 2113 3144 
z
" transform="scale(0.015625)"/>
     </defs>
     <use xlink:href="#DejaVuSansMono-7c"/>
     <use xlink:href="#DejaVuSansMono-20" x="60.205078"/>
     <use xlink:href="#DejaVuSansMono-43" x="120.410156"/>
     <use xlink:href="#DejaVuSansMono-68" x="180.615234"/>
     <use xlink:href="#DejaVuSansMono-65" x="240.820312"/>
     <use xlink:href="#DejaVuSansMono-63" x="301.025391"/>
     <use xlink:href="#DejaVuSansMono-6b" x="361.230469"/>
     <use xlink:href="#DejaVuSansMono-73" x="421.435547"/>
     <use xlink:href="#DejaVuSansMono-75" x="481.640625"/>
     <use xlink:href="#DejaVuSansMono-6d" x="541.845703"/>
     <use xlink:href="#DejaVuSansMono-20" x="602.050781"/>
     <use xlink:href="#DejaVuSansMono-20" x="662.255859"/>
     <use xlink:href="#DejaVuSansMono-20" x="722.460938"/>
     <use xlink:href="#DejaVuSansMono-20" x="782.666016"/>
     <use xlink:href="#DejaVuSansMono-20" x="842.871094"/>
     <use xlink:href="#DejaVuSansMono-20" x="903.076172"/>
     <use xlink:href="#DejaVuSansMono-20" x="963.28125"/>
     <use xlink:href="#DejaVuSansMono-20" x="1023.486328"/>
     <use xlink:href="#DejaVuSansMono-20" x="1083.691406"/>
     <use xlink:href="#DejaVuSansMono-20" x="1143.896484"/>
     <use xlink:href="#DejaVuSansMono-20" x="1204.101562"/>
     <use xlink:href="#DejaVuSansMono-20" x="1264.306641"/>
     <use xlink:href="#DejaVuSansMono-20" x="1324.511719"/>
     <use xlink:href="#DejaVuSansMono-20" x="1384.716797"/>
     <use xlink:href="#DejaVuSansMono-20" x="1444.921875"/>
     <use xlink:href="#DejaVuSansMono-20" x="1505.126953"/>
     <use xlink:href="#DejaVuSansMono-20" x="1565.332031"/>
     <use xlink:href="#DejaVuSansMono-20" x="1625.537109"/>
     <use xlink:href="#DejaVuSansMono-7c" x="1685.742188"/>
    </g>
    <!-- +- - - - - - - - - - - - - - - - - - - - - - - - - - -+ -->
    <g transform="translate(207.634922 211.876734) scale(0.09 -0.09)">
     <use xlink:href="#DejaVuSansMono-2b"/>
     <use xlink:href="#DejaVuSansMono-2d" x="60.205078"/>
     <use xlink:href="#DejaVuSansMono-2d" x="120.410156"/>
     <use xlink:href="#DejaVuSansMono-2d" x="180.615234"/>
     <use xlink:href="#DejaVuSansMono-2d" x="240.820312"/>
     <use xlink:href="#DejaVuSansMono-2d" x="301.025391"/>
     <use xlink:href="#DejaVuSansMono-2d" x="361.230469"/>
     <use xlink:href="#DejaVuSansMono-2d" x="421.435547"/>
     <use xlink:href="#DejaVuSansMono-2d" x="481.640625"/>
     <use xlink:href="#DejaVuSansMono-2d" x="541.845703"/>
     <use xlink:href="#DejaVuSansMono-2d" x="602.050781"/>
     <use xlink:href="#DejaVuSansMono-2d" x="662.255859"/>
     <use xlink:href="#DejaVuSansMono-2d" x="722.460938"/>
     <use xlink:href="#DejaVuSansMono-2d" x="782.666016"/>
     <use xlink:href="#DejaVuSansMono-2d" x="842.871094"/>
     <use xlink:href="#DejaVuSansMono-2d" x="903.076172"/>
     <use xlink:href="#DejaVuSansMono-2d" x="963.28125"/>
     <use xlink:href="#DejaVuSansMono-2d" x="1023.486328"/>
     <use xlink:href="#DejaVuSansMono-2d" x="1083.691406"/>
     <use xlink:href="#DejaVuSansMono-2d" x="1143.896484"/>
     <use xlink:href="#DejaVuSansMono-2d" x="1204.101562"/>
     <use xlink:href="#DejaVuSansMono-2d" x="1264.306641"/>
     <use xlink:href="#DejaVuSansMono-2d" x="1324.511719"/>
     <use xlink:href="#DejaVuSansMono-2d" x="1384.716797"/>
     <use xlink:href="#DejaVuSansMono-2d" x="1444.921875"/>
     <use xlink:href="#DejaVuSansMono-2d" x="1505.126953"/>
     <use xlink:href="#DejaVuSansMono-2d" x="1565.332031"/>
     <use xlink:href="#DejaVuSansMono-2d" x="1625.537109"/>
     <use xlink:href="#DejaVuSansMono-2b" x="1685.742188"/>
    </g>
    <!-- | Payload                   | -->
    <g transform="translate(207.634922 222.012141) scale(0.09 -0.09)">
     <defs>
      <path id="DejaVuSansMono-79" d="M 2681 1125 
Q 2538 759 2316 163 
Q 2006 -663 1900 -844 
Q 1756 -1088 1540 -1209 
Q 1325 -1331 1038 -1331 
L 575 -1331 
L 575 -850 
L 916 -850 
Q 1169 -850 1312 -703 
Q 1456 -556 1678 56 
L 325 3500 
L 934 3500 
L 1972 763 
L 2994 3500 
L 3603 3500 
L 2681 1125 
z
" transform="scale(0.015625)"/>
      <path id="DejaVuSansMono-6c" d="M 1997 1269 
Q 1997 881 2139 684 
Q 2281 488 2559 488 
L 3231 488 
L 3231 0 
L 2503 0 
Q 1988 0 1705 331 
Q 1422 663 1422 1269 
L 1422 4447 
L 500 4447 
L 500 4897 
L 1997 4897 
L 1997 1269 
z
" transform="scale(0.015625)"/>
     </defs>
     <use xlink:href="#DejaVuSansMono-7c"/>
     <use xlink:href="#DejaVuSansMono-20" x="60.205078"/>
     <use xlink:href="#DejaVuSansMono-50" x="120.410156"/>
     <use xlink:href="#DejaVuSansMono-61" x="180.615234"/>
     <use xlink:href="#DejaVuSansMono-79" x="240.820312"/>
     <use xlink:href="#DejaVuSansMono-6c" x="301.025391"/>
     <use xlink:href="#DejaVuSansMono-6f" x="361.230469"/>
     <use xlink:href="#DejaVuSansMono-61" x="421.435547"/>
     <use xlink:href="#DejaVuSansMono-64" x="481.640625"/>
     <use xlink:href="#DejaVuSansMono-20" x="541.845703"/>
     <use xlink:href="#DejaVuSansMono-20" x="602.050781"/>
     <use xlink:href="#DejaVuSansMono-20" x="662.255859"/>
     <use xlink:href="#DejaVuSansMono-20" x="722.460938"/>
     <use xlink:href="#DejaVuSansMono-20" x="782.666016"/>
     <use xlink:href="#DejaVuSansMono-20" x="842.871094"/>
     <use xlink:href="#DejaVuSansMono-20" x="903.076172"/>
     <use xlink:href="#DejaVuSansMono-20" x="963.28125"/>
     <use xlink:href="#DejaVuSansMono-20" x="1023.486328"/>
     <use xlink:href="#DejaVuSansMono-20" x="1083.691406"/>
     <use xlink:href="#DejaVuSansMono-20" x="1143.896484"/>
     <use xlink:href="#DejaVuSansMono-20" x="1204.101562"/>
     <use xlink:href="#DejaVuSansMono-20" x="1264.306641"/>
     <use xlink:href="#DejaVuSansMono-20" x="1324.511719"/>
     <use xlink:href="#DejaVuSansMono-20" x="1384.716797"/>
     <use xlink:href="#DejaVuSansMono-20" x="1444.921875"/>
     <use xlink:href="#DejaVuSansMono-20" x="1505.126953"/>
     <use xlink:href="#DejaVuSansMono-20" x="1565.332031"/>
     <use xlink:href="#DejaVuSansMono-20" x="1625.537109"/>
     <use xlink:href="#DejaVuSansMono-7c" x="1685.742188"/>
    </g>
    <!-- +- - - - - - - - - - - - - - - - - - - - - - - - - - -+ -->
    <g transform="translate(207.634922 232.397859) scale(0.09 -0.09)">
     <use xlink:href="#DejaVuSansMono-2b"/>
     <use xlink:href="#DejaVuSansMono-2d" x="60.205078"/>
     <use xlink:href="#DejaVuSansMono-2d" x="120.410156"/>
     <use xlink:href="#DejaVuSansMono-2d" x="180.615234"/>
     <use xlink:href="#DejaVuSansMono-2d" x="240.820312"/>
     <use xlink:href="#DejaVuSansMono-2d" x="301.025391"/>
     <use xlink:href="#DejaVuSansMono-2d" x="361.230469"/>
     <use xlink:href="#DejaVuSansMono-2d" x="421.435547"/>
     <use xlink:href="#DejaVuSansMono-2d" x="481.640625"/>
     <use xlink:href="#DejaVuSansMono-2d" x="541.845703"/>
     <use xlink:href="#DejaVuSansMono-2d" x="602.050781"/>
     <use xlink:href="#DejaVuSansMono-2d" x="662.255859"/>
     <use xlink:href="#DejaVuSansMono-2d" x="722.460938"/>
     <use xlink:href="#DejaVuSansMono-2d" x="782.666016"/>
     <use xlink:href="#DejaVuSansMono-2d" x="842.871094"/>
     <use xlink:href="#DejaVuSansMono-2d" x="903.076172"/>
     <use xlink:href="#DejaVuSansMono-2d" x="963.28125"/>
     <use xlink:href="#DejaVuSansMono-2d" x="1023.486328"/>
     <use xlink:href="#DejaVuSansMono-2d" x="1083.691406"/>
     <use xlink:href="#DejaVuSansMono-2d" x="1143.896484"/>
     <use xlink:href="#DejaVuSansMono-2d" x="1204.101562"/>
     <use xlink:href="#DejaVuSansMono-2d" x="1264.306641"/>
     <use xlink:href="#DejaVuSansMono-2d" x="1324.511719"/>
     <use xlink:href="#DejaVuSansMono-2d" x="1384.716797"/>
     <use xlink:href="#DejaVuSansMono-2d" x="1444.921875"/>
     <use xlink:href="#DejaVuSansMono-2d" x="1505.126953"/>
     <use xlink:href="#DejaVuSansMono-2d" x="1565.332031"/>
     <use xlink:href="#DejaVuSansMono-2d" x="1625.537109"/>
     <use xlink:href="#DejaVuSansMono-2b" x="1685.742188"/>
    </g>
    <!--  -->
    <g transform="translate(286.2 242.533266) scale(0.09 -0.09)"/>
   </g>
  </g>
 </g>
</svg>
